<?xml version="1.0" encoding="UTF-8" standalone="no"?>
<!DOCTYPE svg PUBLIC "-//W3C//DTD SVG 1.1//EN"
 "http://www.w3.org/Graphics/SVG/1.1/DTD/svg11.dtd">
<!-- Generated by graphviz version 8.0.5 (0)
 -->
<!-- Title: inet Pages: 1 -->
<svg width="5846pt" height="4980pt"
 viewBox="2160.00 2160.00 3686.00 2820.00" xmlns="http://www.w3.org/2000/svg" xmlns:xlink="http://www.w3.org/1999/xlink">
<g id="graph0" class="graph" transform="scale(1 1) rotate(0) translate(2164 2816)">
<title>inet</title>
<polygon fill="white" stroke="none" points="-4,4 -4,-656 1522,-656 1522,4 -4,4"/>
<g id="clust1" class="cluster">
<title>cluster_step0</title>
<polygon fill="none" stroke="black" points="8,-314 8,-644 194,-644 194,-314 8,-314"/>
</g>
<g id="clust2" class="cluster">
<title>cluster_step1</title>
<polygon fill="none" stroke="black" points="224,-8 224,-626 376,-626 376,-8 224,-8"/>
</g>
<g id="clust3" class="cluster">
<title>cluster_step2</title>
<polygon fill="none" stroke="black" points="406,-98 406,-626 592,-626 592,-98 406,-98"/>
</g>
<g id="clust4" class="cluster">
<title>cluster_step3</title>
<polygon fill="none" stroke="black" points="622,-314 622,-644 862,-644 862,-314 622,-314"/>
</g>
<g id="clust5" class="cluster">
<title>cluster_step4</title>
<polygon fill="none" stroke="black" points="892,-8 892,-626 1078,-626 1078,-8 892,-8"/>
</g>
<g id="clust6" class="cluster">
<title>cluster_step5</title>
<polygon fill="none" stroke="black" points="1108,-98 1108,-626 1294,-626 1294,-98 1108,-98"/>
</g>
<g id="clust7" class="cluster">
<title>cluster_step6</title>
<polygon fill="none" stroke="black" points="1324,-98 1324,-626 1510,-626 1510,-98 1324,-98"/>
</g>
<!-- dummy_0 -->
<!-- sg0n0 -->
<g id="node2" class="node">
<title>sg0n0</title>
<polygon fill="none" stroke="black" stroke-width="3" points="74,-542 110,-596 38,-596 74,-542"/>
<text text-anchor="middle" x="74" y="-566.38" font-family="Times,serif" font-size="30.00">δ</text>
</g>
<!-- sg0n1 -->
<g id="node3" class="node">
<title>sg0n1</title>
<polygon fill="black" stroke="black" stroke-width="3" points="74,-506 38,-452 110,-452 74,-506"/>
<text text-anchor="middle" x="74" y="-458.38" font-family="Times,serif" font-size="30.00" fill="white">γ</text>
</g>
<!-- sg0n0&#45;&gt;sg0n1 -->
<g id="edge1" class="edge">
<title>sg0n0:s&#45;&gt;sg0n1:n</title>
<path fill="none" stroke="red" stroke-width="3" d="M74,-542C74,-526 74,-522 74,-506"/>
</g>
<!-- sg0n2 -->
<g id="node5" class="node">
<title>sg0n2</title>
<ellipse fill="none" stroke="black" stroke-width="3" cx="146" cy="-470" rx="18" ry="18"/>
<text text-anchor="middle" x="146" y="-458.38" font-family="Times,serif" font-size="30.00">ε</text>
</g>
<!-- sg0n0&#45;&gt;sg0n2 -->
<g id="edge4" class="edge">
<title>sg0n0:ne&#45;&gt;sg0n2:n</title>
<path fill="none" stroke="black" stroke-width="3" d="M93,-598C98.35,-603.35 103.99,-601.6 110,-597 119.97,-589.38 146,-502.54 146,-490"/>
</g>
<!-- sg0n1&#45;&gt;sg0n0 -->
<g id="edge2" class="edge">
<title>sg0n1:sw&#45;&gt;sg0n0:nw</title>
<path fill="none" stroke="black" stroke-width="3" d="M55,-450C8.49,-403.49 8.49,-644.51 55,-598"/>
</g>
<!-- sg0n3 -->
<g id="node4" class="node">
<title>sg0n3</title>
<ellipse fill="none" stroke="black" stroke-width="3" cx="93" cy="-362" rx="18" ry="18"/>
<text text-anchor="middle" x="93" y="-350.38" font-family="Times,serif" font-size="30.00">ε</text>
</g>
<!-- sg0n1&#45;&gt;sg0n3 -->
<g id="edge3" class="edge">
<title>sg0n1:se&#45;&gt;sg0n3:n</title>
<path fill="none" stroke="black" stroke-width="3" d="M93,-450C114.37,-428.63 93,-412.22 93,-382"/>
</g>
<!-- dummy_1 -->
<!-- sg1n0 -->
<g id="node7" class="node">
<title>sg1n0</title>
<ellipse fill="none" stroke="black" stroke-width="3" cx="294" cy="-578" rx="18" ry="18"/>
<text text-anchor="middle" x="294" y="-566.38" font-family="Times,serif" font-size="30.00">ε</text>
</g>
<!-- sg1n4 -->
<g id="node8" class="node">
<title>sg1n4</title>
<polygon fill="black" stroke="black" stroke-width="3" points="294,-506 258,-452 330,-452 294,-506"/>
<text text-anchor="middle" x="294" y="-458.38" font-family="Times,serif" font-size="30.00" fill="white">γ</text>
</g>
<!-- sg1n0&#45;&gt;sg1n4 -->
<g id="edge5" class="edge">
<title>sg1n0:s&#45;&gt;sg1n4:n</title>
<path fill="none" stroke="red" stroke-width="3" d="M294,-558C294,-534.89 294,-529.11 294,-506"/>
</g>
<!-- sg1n2 -->
<g id="node9" class="node">
<title>sg1n2</title>
<polygon fill="none" stroke="black" stroke-width="3" points="310,-326 346,-380 274,-380 310,-326"/>
<text text-anchor="middle" x="310" y="-350.38" font-family="Times,serif" font-size="30.00">δ</text>
</g>
<!-- sg1n4&#45;&gt;sg1n2 -->
<g id="edge6" class="edge">
<title>sg1n4:sw&#45;&gt;sg1n2:nw</title>
<path fill="none" stroke="black" stroke-width="3" d="M275,-450C253.05,-428.05 269.05,-403.95 291,-382"/>
</g>
<!-- sg1n5 -->
<g id="node10" class="node">
<title>sg1n5</title>
<polygon fill="black" stroke="black" stroke-width="3" points="310,-290 274,-236 346,-236 310,-290"/>
<text text-anchor="middle" x="310" y="-242.38" font-family="Times,serif" font-size="30.00" fill="white">γ</text>
</g>
<!-- sg1n2&#45;&gt;sg1n5 -->
<g id="edge7" class="edge">
<title>sg1n2:s&#45;&gt;sg1n5:n</title>
<path fill="none" stroke="blue" stroke-width="3" d="M310,-322C310,-307.78 310,-304.22 310,-290"/>
</g>
<!-- sg1n5&#45;&gt;sg1n2 -->
<g id="edge8" class="edge">
<title>sg1n5:sw&#45;&gt;sg1n2:ne</title>
<path fill="none" stroke="black" stroke-width="3" d="M291,-234C285.65,-228.65 279.19,-229.49 274,-235 257.23,-252.79 261.15,-269.21 274,-290 292.81,-320.43 327.19,-295.57 346,-326 410.77,-430.8 372.59,-425.59 329,-382"/>
</g>
<!-- sg1n3 -->
<g id="node11" class="node">
<title>sg1n3</title>
<polygon fill="none" stroke="black" stroke-width="3" points="300,-110 336,-164 264,-164 300,-110"/>
<text text-anchor="middle" x="300" y="-134.38" font-family="Times,serif" font-size="30.00">δ</text>
</g>
<!-- sg1n5&#45;&gt;sg1n3 -->
<g id="edge9" class="edge">
<title>sg1n5:se&#45;&gt;sg1n3:ne</title>
<path fill="none" stroke="black" stroke-width="3" d="M329,-234C350.6,-212.4 340.6,-187.6 319,-166"/>
</g>
<!-- sg1n3&#45;&gt;sg1n4 -->
<g id="edge11" class="edge">
<title>sg1n3:nw&#45;&gt;sg1n4:se</title>
<path fill="none" stroke="black" stroke-width="3" d="M281,-166C207.92,-239.08 227.36,-301.74 265,-398 276.45,-427.29 335.24,-427.76 313,-450"/>
</g>
<!-- sg1n1 -->
<g id="node12" class="node">
<title>sg1n1</title>
<ellipse fill="none" stroke="black" stroke-width="3" cx="300" cy="-56" rx="18" ry="18"/>
<text text-anchor="middle" x="300" y="-44.38" font-family="Times,serif" font-size="30.00">ε</text>
</g>
<!-- sg1n3&#45;&gt;sg1n1 -->
<g id="edge10" class="edge">
<title>sg1n3:s&#45;&gt;sg1n1:n</title>
<path fill="none" stroke="blue" stroke-width="3" d="M300,-106C300,-91.78 300,-88.22 300,-74"/>
</g>
<!-- dummy_2 -->
<!-- sg2n0 -->
<g id="node14" class="node">
<title>sg2n0</title>
<ellipse fill="none" stroke="black" stroke-width="3" cx="484" cy="-578" rx="18" ry="18"/>
<text text-anchor="middle" x="484" y="-566.38" font-family="Times,serif" font-size="30.00">ε</text>
</g>
<!-- sg2n2 -->
<g id="node15" class="node">
<title>sg2n2</title>
<polygon fill="none" stroke="black" stroke-width="3" points="484,-506 448,-452 520,-452 484,-506"/>
<text text-anchor="middle" x="484" y="-458.38" font-family="Times,serif" font-size="30.00">δ</text>
</g>
<!-- sg2n0&#45;&gt;sg2n2 -->
<g id="edge12" class="edge">
<title>sg2n0:s&#45;&gt;sg2n2:n</title>
<path fill="none" stroke="red" stroke-width="3" d="M484,-558C484,-534.89 484,-529.11 484,-506"/>
</g>
<!-- sg2n3 -->
<g id="node16" class="node">
<title>sg2n3</title>
<polygon fill="black" stroke="black" stroke-width="3" points="472,-326 508,-380 436,-380 472,-326"/>
<text text-anchor="middle" x="472" y="-350.38" font-family="Times,serif" font-size="30.00" fill="white">γ</text>
</g>
<!-- sg2n2&#45;&gt;sg2n3 -->
<g id="edge13" class="edge">
<title>sg2n2:sw&#45;&gt;sg2n3:nw</title>
<path fill="none" stroke="black" stroke-width="3" d="M465,-450C443.3,-428.3 431.3,-403.7 453,-382"/>
</g>
<!-- sg2n5 -->
<g id="node19" class="node">
<title>sg2n5</title>
<ellipse fill="none" stroke="black" stroke-width="3" cx="544" cy="-362" rx="18" ry="18"/>
<text text-anchor="middle" x="544" y="-350.38" font-family="Times,serif" font-size="30.00">ε</text>
</g>
<!-- sg2n2&#45;&gt;sg2n5 -->
<g id="edge17" class="edge">
<title>sg2n2:se&#45;&gt;sg2n5:n</title>
<path fill="none" stroke="black" stroke-width="3" d="M503,-450C527.95,-425.05 544,-417.29 544,-382"/>
</g>
<!-- sg2n1 -->
<g id="node17" class="node">
<title>sg2n1</title>
<polygon fill="none" stroke="black" stroke-width="3" points="491,-290 455,-236 527,-236 491,-290"/>
<text text-anchor="middle" x="491" y="-242.38" font-family="Times,serif" font-size="30.00">δ</text>
</g>
<!-- sg2n3&#45;&gt;sg2n1 -->
<g id="edge14" class="edge">
<title>sg2n3:s&#45;&gt;sg2n1:n</title>
<path fill="none" stroke="blue" stroke-width="3" d="M472,-322C472,-305.46 491,-306.54 491,-290"/>
</g>
<!-- sg2n1&#45;&gt;sg2n3 -->
<g id="edge15" class="edge">
<title>sg2n1:sw&#45;&gt;sg2n3:ne</title>
<path fill="none" stroke="black" stroke-width="3" d="M472,-234C466.65,-228.65 460.19,-229.49 455,-235 438.23,-252.79 443.56,-268.4 455,-290 468.33,-315.16 494.67,-300.84 508,-326 530.54,-368.55 509.75,-400.75 491,-382"/>
</g>
<!-- sg2n4 -->
<g id="node18" class="node">
<title>sg2n4</title>
<ellipse fill="none" stroke="black" stroke-width="3" cx="510" cy="-146" rx="18" ry="18"/>
<text text-anchor="middle" x="510" y="-134.38" font-family="Times,serif" font-size="30.00">ε</text>
</g>
<!-- sg2n1&#45;&gt;sg2n4 -->
<g id="edge16" class="edge">
<title>sg2n1:se&#45;&gt;sg2n4:n</title>
<path fill="none" stroke="black" stroke-width="3" d="M510,-234C531.37,-212.63 510,-196.22 510,-166"/>
</g>
<!-- dummy_3 -->
<!-- sg3n0 -->
<g id="node21" class="node">
<title>sg3n0</title>
<polygon fill="none" stroke="black" stroke-width="3" points="758,-542 794,-596 722,-596 758,-542"/>
<text text-anchor="middle" x="758" y="-566.38" font-family="Times,serif" font-size="30.00">δ</text>
</g>
<!-- sg3n1 -->
<g id="node22" class="node">
<title>sg3n1</title>
<polygon fill="black" stroke="black" stroke-width="3" points="796,-506 760,-452 832,-452 796,-506"/>
<text text-anchor="middle" x="796" y="-458.38" font-family="Times,serif" font-size="30.00" fill="white">γ</text>
</g>
<!-- sg3n0&#45;&gt;sg3n1 -->
<g id="edge18" class="edge">
<title>sg3n0:s&#45;&gt;sg3n1:n</title>
<path fill="none" stroke="red" stroke-width="3" d="M758,-542C758,-518.74 796,-529.26 796,-506"/>
</g>
<!-- sg3n2 -->
<g id="node24" class="node">
<title>sg3n2</title>
<ellipse fill="none" stroke="black" stroke-width="3" cx="724" cy="-470" rx="18" ry="18"/>
<text text-anchor="middle" x="724" y="-458.38" font-family="Times,serif" font-size="30.00">ε</text>
</g>
<!-- sg3n0&#45;&gt;sg3n2 -->
<g id="edge21" class="edge">
<title>sg3n0:nw&#45;&gt;sg3n2:n</title>
<path fill="none" stroke="black" stroke-width="3" d="M739,-598C704.73,-632.27 724,-538.46 724,-490"/>
</g>
<!-- sg3n1&#45;&gt;sg3n0 -->
<g id="edge19" class="edge">
<title>sg3n1:sw&#45;&gt;sg3n0:ne</title>
<path fill="none" stroke="black" stroke-width="3" d="M777,-450C771.65,-444.65 765.19,-445.49 760,-451 743.23,-468.79 750.97,-483.28 760,-506 768.13,-526.45 785.87,-521.55 794,-542 820.42,-608.45 808.71,-629.71 777,-598"/>
</g>
<!-- sg3n4 -->
<g id="node23" class="node">
<title>sg3n4</title>
<ellipse fill="none" stroke="black" stroke-width="3" cx="814" cy="-362" rx="18" ry="18"/>
<text text-anchor="middle" x="814" y="-350.38" font-family="Times,serif" font-size="30.00">ε</text>
</g>
<!-- sg3n1&#45;&gt;sg3n4 -->
<g id="edge20" class="edge">
<title>sg3n1:se&#45;&gt;sg3n4:n</title>
<path fill="none" stroke="black" stroke-width="3" d="M815,-450C836.37,-428.63 814,-412.23 814,-382"/>
</g>
<!-- sg3n3 -->
<g id="node25" class="node">
<title>sg3n3</title>
<ellipse fill="none" stroke="black" stroke-width="3" cx="670" cy="-578" rx="18" ry="18"/>
<text text-anchor="middle" x="670" y="-566.38" font-family="Times,serif" font-size="30.00">ε</text>
</g>
<!-- sg3n5 -->
<g id="node26" class="node">
<title>sg3n5</title>
<ellipse fill="none" stroke="black" stroke-width="3" cx="670" cy="-470" rx="18" ry="18"/>
<text text-anchor="middle" x="670" y="-458.38" font-family="Times,serif" font-size="30.00">ε</text>
</g>
<!-- sg3n3&#45;&gt;sg3n5 -->
<g id="edge22" class="edge">
<title>sg3n3:s&#45;&gt;sg3n5:n</title>
<path fill="none" stroke="blue" stroke-width="3" d="M670,-558C670,-527.78 670,-520.22 670,-490"/>
</g>
<!-- dummy_4 -->
<!-- sg4n0 -->
<g id="node28" class="node">
<title>sg4n0</title>
<ellipse fill="none" stroke="black" stroke-width="3" cx="1008" cy="-578" rx="18" ry="18"/>
<text text-anchor="middle" x="1008" y="-566.38" font-family="Times,serif" font-size="30.00">ε</text>
</g>
<!-- sg4n7 -->
<g id="node29" class="node">
<title>sg4n7</title>
<polygon fill="black" stroke="black" stroke-width="3" points="1012,-506 976,-452 1048,-452 1012,-506"/>
<text text-anchor="middle" x="1012" y="-458.38" font-family="Times,serif" font-size="30.00" fill="white">γ</text>
</g>
<!-- sg4n0&#45;&gt;sg4n7 -->
<g id="edge23" class="edge">
<title>sg4n0:s&#45;&gt;sg4n7:n</title>
<path fill="none" stroke="red" stroke-width="3" d="M1008,-558C1008,-534.82 1012,-529.18 1012,-506"/>
</g>
<!-- sg4n4 -->
<g id="node30" class="node">
<title>sg4n4</title>
<polygon fill="none" stroke="black" stroke-width="3" points="974,-326 1010,-380 938,-380 974,-326"/>
<text text-anchor="middle" x="974" y="-350.38" font-family="Times,serif" font-size="30.00">δ</text>
</g>
<!-- sg4n7&#45;&gt;sg4n4 -->
<g id="edge24" class="edge">
<title>sg4n7:sw&#45;&gt;sg4n4:ne</title>
<path fill="none" stroke="black" stroke-width="3" d="M993,-450C971.63,-428.63 1014.37,-403.37 993,-382"/>
</g>
<!-- sg4n6 -->
<g id="node31" class="node">
<title>sg4n6</title>
<polygon fill="black" stroke="black" stroke-width="3" points="974,-290 938,-236 1010,-236 974,-290"/>
<text text-anchor="middle" x="974" y="-242.38" font-family="Times,serif" font-size="30.00" fill="white">γ</text>
</g>
<!-- sg4n4&#45;&gt;sg4n6 -->
<g id="edge25" class="edge">
<title>sg4n4:s&#45;&gt;sg4n6:n</title>
<path fill="none" stroke="blue" stroke-width="3" d="M974,-322C974,-307.78 974,-304.22 974,-290"/>
</g>
<!-- sg4n6&#45;&gt;sg4n4 -->
<g id="edge26" class="edge">
<title>sg4n6:sw&#45;&gt;sg4n4:nw</title>
<path fill="none" stroke="black" stroke-width="3" d="M955,-234C908.49,-187.49 908.49,-428.51 955,-382"/>
</g>
<!-- sg4n5 -->
<g id="node32" class="node">
<title>sg4n5</title>
<polygon fill="none" stroke="black" stroke-width="3" points="1012,-110 1048,-164 976,-164 1012,-110"/>
<text text-anchor="middle" x="1012" y="-134.38" font-family="Times,serif" font-size="30.00">δ</text>
</g>
<!-- sg4n6&#45;&gt;sg4n5 -->
<g id="edge27" class="edge">
<title>sg4n6:se&#45;&gt;sg4n5:nw</title>
<path fill="none" stroke="black" stroke-width="3" d="M993,-234C1014.37,-212.63 971.63,-187.37 993,-166"/>
</g>
<!-- sg4n5&#45;&gt;sg4n7 -->
<g id="edge29" class="edge">
<title>sg4n5:ne&#45;&gt;sg4n7:se</title>
<path fill="none" stroke="black" stroke-width="3" d="M1031,-166C1120.25,-255.25 1120.25,-360.75 1031,-450"/>
</g>
<!-- sg4n2 -->
<g id="node33" class="node">
<title>sg4n2</title>
<ellipse fill="none" stroke="black" stroke-width="3" cx="1012" cy="-56" rx="18" ry="18"/>
<text text-anchor="middle" x="1012" y="-44.38" font-family="Times,serif" font-size="30.00">ε</text>
</g>
<!-- sg4n5&#45;&gt;sg4n2 -->
<g id="edge28" class="edge">
<title>sg4n5:s&#45;&gt;sg4n2:n</title>
<path fill="none" stroke="blue" stroke-width="3" d="M1012,-106C1012,-91.78 1012,-88.22 1012,-74"/>
</g>
<!-- sg4n1 -->
<g id="node34" class="node">
<title>sg4n1</title>
<ellipse fill="none" stroke="black" stroke-width="3" cx="940" cy="-578" rx="18" ry="18"/>
<text text-anchor="middle" x="940" y="-566.38" font-family="Times,serif" font-size="30.00">ε</text>
</g>
<!-- sg4n3 -->
<g id="node35" class="node">
<title>sg4n3</title>
<ellipse fill="none" stroke="black" stroke-width="3" cx="940" cy="-470" rx="18" ry="18"/>
<text text-anchor="middle" x="940" y="-458.38" font-family="Times,serif" font-size="30.00">ε</text>
</g>
<!-- sg4n1&#45;&gt;sg4n3 -->
<g id="edge30" class="edge">
<title>sg4n1:s&#45;&gt;sg4n3:n</title>
<path fill="none" stroke="blue" stroke-width="3" d="M940,-558C940,-527.78 940,-520.22 940,-490"/>
</g>
<!-- dummy_5 -->
<!-- sg5n0 -->
<g id="node37" class="node">
<title>sg5n0</title>
<ellipse fill="none" stroke="black" stroke-width="3" cx="1224" cy="-578" rx="18" ry="18"/>
<text text-anchor="middle" x="1224" y="-566.38" font-family="Times,serif" font-size="30.00">ε</text>
</g>
<!-- sg5n2 -->
<g id="node38" class="node">
<title>sg5n2</title>
<ellipse fill="none" stroke="black" stroke-width="3" cx="1246" cy="-470" rx="18" ry="18"/>
<text text-anchor="middle" x="1246" y="-458.38" font-family="Times,serif" font-size="30.00">ε</text>
</g>
<!-- sg5n0&#45;&gt;sg5n2 -->
<g id="edge31" class="edge">
<title>sg5n0:s&#45;&gt;sg5n2:n</title>
<path fill="none" stroke="red" stroke-width="3" d="M1224,-558C1224,-526.24 1246,-521.76 1246,-490"/>
</g>
<!-- sg5n1 -->
<g id="node39" class="node">
<title>sg5n1</title>
<ellipse fill="none" stroke="black" stroke-width="3" cx="1170" cy="-578" rx="18" ry="18"/>
<text text-anchor="middle" x="1170" y="-566.38" font-family="Times,serif" font-size="30.00">ε</text>
</g>
<!-- sg5n4 -->
<g id="node40" class="node">
<title>sg5n4</title>
<polygon fill="none" stroke="black" stroke-width="3" points="1174,-506 1138,-452 1210,-452 1174,-506"/>
<text text-anchor="middle" x="1174" y="-458.38" font-family="Times,serif" font-size="30.00">δ</text>
</g>
<!-- sg5n1&#45;&gt;sg5n4 -->
<g id="edge32" class="edge">
<title>sg5n1:s&#45;&gt;sg5n4:n</title>
<path fill="none" stroke="blue" stroke-width="3" d="M1170,-558C1170,-534.82 1174,-529.18 1174,-506"/>
</g>
<!-- sg5n7 -->
<g id="node41" class="node">
<title>sg5n7</title>
<ellipse fill="none" stroke="black" stroke-width="3" cx="1156" cy="-362" rx="18" ry="18"/>
<text text-anchor="middle" x="1156" y="-350.38" font-family="Times,serif" font-size="30.00">ε</text>
</g>
<!-- sg5n4&#45;&gt;sg5n7 -->
<g id="edge33" class="edge">
<title>sg5n4:sw&#45;&gt;sg5n7:n</title>
<path fill="none" stroke="black" stroke-width="3" d="M1155,-450C1133.63,-428.63 1156,-412.23 1156,-382"/>
</g>
<!-- sg5n5 -->
<g id="node42" class="node">
<title>sg5n5</title>
<polygon fill="black" stroke="black" stroke-width="3" points="1228,-326 1264,-380 1192,-380 1228,-326"/>
<text text-anchor="middle" x="1228" y="-350.38" font-family="Times,serif" font-size="30.00" fill="white">γ</text>
</g>
<!-- sg5n4&#45;&gt;sg5n5 -->
<g id="edge34" class="edge">
<title>sg5n4:se&#45;&gt;sg5n5:nw</title>
<path fill="none" stroke="black" stroke-width="3" d="M1193,-450C1214.95,-428.05 1187.05,-403.95 1209,-382"/>
</g>
<!-- sg5n3 -->
<g id="node43" class="node">
<title>sg5n3</title>
<polygon fill="none" stroke="black" stroke-width="3" points="1228,-290 1192,-236 1264,-236 1228,-290"/>
<text text-anchor="middle" x="1228" y="-242.38" font-family="Times,serif" font-size="30.00">δ</text>
</g>
<!-- sg5n5&#45;&gt;sg5n3 -->
<g id="edge35" class="edge">
<title>sg5n5:s&#45;&gt;sg5n3:n</title>
<path fill="none" stroke="blue" stroke-width="3" d="M1228,-322C1228,-307.78 1228,-304.22 1228,-290"/>
</g>
<!-- sg5n3&#45;&gt;sg5n5 -->
<g id="edge37" class="edge">
<title>sg5n3:se&#45;&gt;sg5n5:ne</title>
<path fill="none" stroke="black" stroke-width="3" d="M1247,-234C1293.51,-187.49 1293.51,-428.51 1247,-382"/>
</g>
<!-- sg5n6 -->
<g id="node44" class="node">
<title>sg5n6</title>
<ellipse fill="none" stroke="black" stroke-width="3" cx="1209" cy="-146" rx="18" ry="18"/>
<text text-anchor="middle" x="1209" y="-134.38" font-family="Times,serif" font-size="30.00">ε</text>
</g>
<!-- sg5n3&#45;&gt;sg5n6 -->
<g id="edge36" class="edge">
<title>sg5n3:sw&#45;&gt;sg5n6:n</title>
<path fill="none" stroke="black" stroke-width="3" d="M1209,-234C1187.63,-212.63 1209,-196.22 1209,-166"/>
</g>
<!-- dummy_6 -->
<!-- sg6n0 -->
<g id="node46" class="node">
<title>sg6n0</title>
<ellipse fill="none" stroke="black" stroke-width="3" cx="1398" cy="-578" rx="18" ry="18"/>
<text text-anchor="middle" x="1398" y="-566.38" font-family="Times,serif" font-size="30.00">ε</text>
</g>
<!-- sg6n2 -->
<g id="node47" class="node">
<title>sg6n2</title>
<polygon fill="none" stroke="black" stroke-width="3" points="1398,-506 1362,-452 1434,-452 1398,-506"/>
<text text-anchor="middle" x="1398" y="-458.38" font-family="Times,serif" font-size="30.00">δ</text>
</g>
<!-- sg6n0&#45;&gt;sg6n2 -->
<g id="edge38" class="edge">
<title>sg6n0:s&#45;&gt;sg6n2:n</title>
<path fill="none" stroke="red" stroke-width="3" d="M1398,-558C1398,-534.89 1398,-529.11 1398,-506"/>
</g>
<!-- sg6n5 -->
<g id="node48" class="node">
<title>sg6n5</title>
<ellipse fill="none" stroke="black" stroke-width="3" cx="1372" cy="-362" rx="18" ry="18"/>
<text text-anchor="middle" x="1372" y="-350.38" font-family="Times,serif" font-size="30.00">ε</text>
</g>
<!-- sg6n2&#45;&gt;sg6n5 -->
<g id="edge39" class="edge">
<title>sg6n2:sw&#45;&gt;sg6n5:n</title>
<path fill="none" stroke="black" stroke-width="3" d="M1379,-450C1357.52,-428.52 1372,-412.38 1372,-382"/>
</g>
<!-- sg6n3 -->
<g id="node49" class="node">
<title>sg6n3</title>
<polygon fill="black" stroke="black" stroke-width="3" points="1444,-326 1480,-380 1408,-380 1444,-326"/>
<text text-anchor="middle" x="1444" y="-350.38" font-family="Times,serif" font-size="30.00" fill="white">γ</text>
</g>
<!-- sg6n2&#45;&gt;sg6n3 -->
<g id="edge40" class="edge">
<title>sg6n2:se&#45;&gt;sg6n3:nw</title>
<path fill="none" stroke="black" stroke-width="3" d="M1417,-450C1438.52,-428.48 1403.48,-403.52 1425,-382"/>
</g>
<!-- sg6n1 -->
<g id="node50" class="node">
<title>sg6n1</title>
<polygon fill="none" stroke="black" stroke-width="3" points="1444,-290 1408,-236 1480,-236 1444,-290"/>
<text text-anchor="middle" x="1444" y="-242.38" font-family="Times,serif" font-size="30.00">δ</text>
</g>
<!-- sg6n3&#45;&gt;sg6n1 -->
<g id="edge41" class="edge">
<title>sg6n3:s&#45;&gt;sg6n1:n</title>
<path fill="none" stroke="blue" stroke-width="3" d="M1444,-322C1444,-307.78 1444,-304.22 1444,-290"/>
</g>
<!-- sg6n1&#45;&gt;sg6n3 -->
<g id="edge43" class="edge">
<title>sg6n1:se&#45;&gt;sg6n3:ne</title>
<path fill="none" stroke="black" stroke-width="3" d="M1463,-234C1509.51,-187.49 1509.51,-428.51 1463,-382"/>
</g>
<!-- sg6n4 -->
<g id="node51" class="node">
<title>sg6n4</title>
<ellipse fill="none" stroke="black" stroke-width="3" cx="1425" cy="-146" rx="18" ry="18"/>
<text text-anchor="middle" x="1425" y="-134.38" font-family="Times,serif" font-size="30.00">ε</text>
</g>
<!-- sg6n1&#45;&gt;sg6n4 -->
<g id="edge42" class="edge">
<title>sg6n1:sw&#45;&gt;sg6n4:n</title>
<path fill="none" stroke="black" stroke-width="3" d="M1425,-234C1403.63,-212.63 1425,-196.22 1425,-166"/>
</g>
</g>
</svg>
