<?xml version="1.0" encoding="UTF-8" standalone="no"?>
<!DOCTYPE svg PUBLIC "-//W3C//DTD SVG 1.1//EN"
 "http://www.w3.org/Graphics/SVG/1.1/DTD/svg11.dtd">
<!-- Generated by graphviz version 8.0.5 (0)
 -->
<!-- Title: inet Pages: 1 -->
<svg width="4260pt" height="3520pt"
 viewBox="1440.00 1440.00 2820.00 2080.00" xmlns="http://www.w3.org/2000/svg" xmlns:xlink="http://www.w3.org/1999/xlink">
<g id="graph0" class="graph" transform="scale(1 1) rotate(0) translate(1444 2076)">
<title>inet</title>
<polygon fill="white" stroke="none" points="-4,4 -4,-636 1376,-636 1376,4 -4,4"/>
<g id="clust1" class="cluster">
<title>cluster_step0</title>
<polygon fill="none" stroke="black" points="8,-8 8,-606 140,-606 140,-8 8,-8"/>
</g>
<g id="clust2" class="cluster">
<title>cluster_step1</title>
<polygon fill="none" stroke="black" points="160,-98 160,-606 326,-606 326,-98 160,-98"/>
</g>
<g id="clust3" class="cluster">
<title>cluster_step2</title>
<polygon fill="none" stroke="black" points="346,-314 346,-624 566,-624 566,-314 346,-314"/>
</g>
<g id="clust4" class="cluster">
<title>cluster_step3</title>
<polygon fill="none" stroke="black" points="586,-8 586,-606 752,-606 752,-8 586,-8"/>
</g>
<g id="clust5" class="cluster">
<title>cluster_step4</title>
<polygon fill="none" stroke="black" points="772,-98 772,-606 938,-606 938,-98 772,-98"/>
</g>
<g id="clust6" class="cluster">
<title>cluster_step5</title>
<polygon fill="none" stroke="black" points="958,-98 958,-606 1124,-606 1124,-98 958,-98"/>
</g>
<g id="clust7" class="cluster">
<title>cluster_step6</title>
<polygon fill="none" stroke="black" points="1144,-314 1144,-624 1364,-624 1364,-314 1144,-314"/>
</g>
<!-- dummy_0 -->
<!-- dummy_1 -->
<!-- dummy_0&#45;&gt;dummy_1 -->
<g id="edge8" class="edge">
<title>dummy_0:s&#45;&gt;dummy_1:s</title>
<path fill="none" stroke="black" stroke-width="3" d="M140,-504.64C142.55,-502.33 145.25,-500.19 148.08,-498.21"/>
<polygon fill="black" stroke="black" stroke-width="3" points="150.14,-501.31 157,-493.24 146.6,-495.27 150.14,-501.31"/>
</g>
<!-- sg0n0 -->
<g id="node2" class="node">
<title>sg0n0</title>
<ellipse fill="none" stroke="black" stroke-width="3" cx="68" cy="-568" rx="18" ry="18"/>
<text text-anchor="middle" x="68" y="-556.38" font-family="Times,serif" font-size="30.00">ε</text>
</g>
<!-- sg0n4 -->
<g id="node3" class="node">
<title>sg0n4</title>
<polygon fill="black" stroke="black" stroke-width="3" points="68,-496 32,-442 104,-442 68,-496"/>
<text text-anchor="middle" x="68" y="-448.38" font-family="Times,serif" font-size="30.00" fill="white">γ</text>
</g>
<!-- sg0n0&#45;&gt;sg0n4 -->
<g id="edge1" class="edge">
<title>sg0n0:s&#45;&gt;sg0n4:n</title>
<path fill="none" stroke="red" stroke-width="3" d="M68,-548C68,-524.89 68,-519.11 68,-496"/>
</g>
<!-- sg0n2 -->
<g id="node4" class="node">
<title>sg0n2</title>
<polygon fill="none" stroke="black" stroke-width="3" points="84,-316 120,-370 48,-370 84,-316"/>
<text text-anchor="middle" x="84" y="-340.38" font-family="Times,serif" font-size="30.00">δ</text>
</g>
<!-- sg0n4&#45;&gt;sg0n2 -->
<g id="edge2" class="edge">
<title>sg0n4:sw&#45;&gt;sg0n2:nw</title>
<path fill="none" stroke="blue" stroke-width="3" d="M49,-440C27.05,-418.05 43.05,-393.95 65,-372"/>
</g>
<!-- sg0n5 -->
<g id="node5" class="node">
<title>sg0n5</title>
<polygon fill="black" stroke="black" stroke-width="3" points="84,-280 48,-226 120,-226 84,-280"/>
<text text-anchor="middle" x="84" y="-232.38" font-family="Times,serif" font-size="30.00" fill="white">γ</text>
</g>
<!-- sg0n2&#45;&gt;sg0n5 -->
<g id="edge3" class="edge">
<title>sg0n2:s&#45;&gt;sg0n5:n</title>
<path fill="none" stroke="red" stroke-width="3" d="M84,-314C84,-298.89 84,-295.11 84,-280"/>
</g>
<!-- sg0n5&#45;&gt;sg0n2 -->
<g id="edge4" class="edge">
<title>sg0n5:sw&#45;&gt;sg0n2:ne</title>
<path fill="none" stroke="blue" stroke-width="3" d="M65,-224C59.65,-218.65 53.19,-219.49 48,-225 31.23,-242.79 35.15,-259.21 48,-280 66.81,-310.43 101.19,-285.57 120,-316 184.77,-420.8 146.59,-415.59 103,-372"/>
</g>
<!-- sg0n3 -->
<g id="node6" class="node">
<title>sg0n3</title>
<polygon fill="none" stroke="black" stroke-width="3" points="74,-100 110,-154 38,-154 74,-100"/>
<text text-anchor="middle" x="74" y="-124.38" font-family="Times,serif" font-size="30.00">δ</text>
</g>
<!-- sg0n5&#45;&gt;sg0n3 -->
<g id="edge5" class="edge">
<title>sg0n5:se&#45;&gt;sg0n3:ne</title>
<path fill="none" stroke="blue" stroke-width="3" d="M103,-224C124.6,-202.4 114.6,-177.6 93,-156"/>
</g>
<!-- sg0n3&#45;&gt;sg0n4 -->
<g id="edge7" class="edge">
<title>sg0n3:nw&#45;&gt;sg0n4:se</title>
<path fill="none" stroke="blue" stroke-width="3" d="M55,-156C-18.08,-229.08 1.36,-291.74 39,-388 50.45,-417.29 109.24,-417.76 87,-440"/>
</g>
<!-- sg0n1 -->
<g id="node7" class="node">
<title>sg0n1</title>
<ellipse fill="none" stroke="black" stroke-width="3" cx="74" cy="-46" rx="18" ry="18"/>
<text text-anchor="middle" x="74" y="-34.38" font-family="Times,serif" font-size="30.00">ε</text>
</g>
<!-- sg0n3&#45;&gt;sg0n1 -->
<g id="edge6" class="edge">
<title>sg0n3:s&#45;&gt;sg0n1:n</title>
<path fill="none" stroke="red" stroke-width="3" d="M74,-98C74,-82.89 74,-79.11 74,-64"/>
</g>
<!-- dummy_2 -->
<!-- dummy_1&#45;&gt;dummy_2 -->
<g id="edge15" class="edge">
<title>dummy_1:s&#45;&gt;dummy_2:s</title>
<path fill="none" stroke="black" stroke-width="3" d="M326,-506.36C328.37,-505.01 330.86,-503.69 333.44,-502.38"/>
<polygon fill="black" stroke="black" stroke-width="3" points="334.52,-504.81 342,-497.31 331.48,-498.51 334.52,-504.81"/>
</g>
<!-- sg1n0 -->
<g id="node9" class="node">
<title>sg1n0</title>
<ellipse fill="none" stroke="black" stroke-width="3" cx="228" cy="-568" rx="18" ry="18"/>
<text text-anchor="middle" x="228" y="-556.38" font-family="Times,serif" font-size="30.00">ε</text>
</g>
<!-- sg1n2 -->
<g id="node10" class="node">
<title>sg1n2</title>
<polygon fill="none" stroke="black" stroke-width="3" points="228,-496 192,-442 264,-442 228,-496"/>
<text text-anchor="middle" x="228" y="-448.38" font-family="Times,serif" font-size="30.00">δ</text>
</g>
<!-- sg1n0&#45;&gt;sg1n2 -->
<g id="edge9" class="edge">
<title>sg1n0:s&#45;&gt;sg1n2:n</title>
<path fill="none" stroke="red" stroke-width="3" d="M228,-548C228,-524.89 228,-519.11 228,-496"/>
</g>
<!-- sg1n3 -->
<g id="node11" class="node">
<title>sg1n3</title>
<polygon fill="black" stroke="black" stroke-width="3" points="216,-316 252,-370 180,-370 216,-316"/>
<text text-anchor="middle" x="216" y="-340.38" font-family="Times,serif" font-size="30.00" fill="white">γ</text>
</g>
<!-- sg1n2&#45;&gt;sg1n3 -->
<g id="edge10" class="edge">
<title>sg1n2:sw&#45;&gt;sg1n3:nw</title>
<path fill="none" stroke="blue" stroke-width="3" d="M209,-440C187.3,-418.3 175.3,-393.7 197,-372"/>
</g>
<!-- sg1n5 -->
<g id="node14" class="node">
<title>sg1n5</title>
<ellipse fill="none" stroke="black" stroke-width="3" cx="288" cy="-352" rx="18" ry="18"/>
<text text-anchor="middle" x="288" y="-340.38" font-family="Times,serif" font-size="30.00">ε</text>
</g>
<!-- sg1n2&#45;&gt;sg1n5 -->
<g id="edge14" class="edge">
<title>sg1n2:se&#45;&gt;sg1n5:n</title>
<path fill="none" stroke="black" stroke-width="3" d="M247,-440C271.95,-415.05 288,-407.29 288,-372"/>
</g>
<!-- sg1n1 -->
<g id="node12" class="node">
<title>sg1n1</title>
<polygon fill="none" stroke="black" stroke-width="3" points="235,-280 199,-226 271,-226 235,-280"/>
<text text-anchor="middle" x="235" y="-232.38" font-family="Times,serif" font-size="30.00">δ</text>
</g>
<!-- sg1n3&#45;&gt;sg1n1 -->
<g id="edge11" class="edge">
<title>sg1n3:s&#45;&gt;sg1n1:n</title>
<path fill="none" stroke="red" stroke-width="3" d="M216,-314C216,-296.69 235,-297.31 235,-280"/>
</g>
<!-- sg1n1&#45;&gt;sg1n3 -->
<g id="edge12" class="edge">
<title>sg1n1:sw&#45;&gt;sg1n3:ne</title>
<path fill="none" stroke="blue" stroke-width="3" d="M216,-224C210.65,-218.65 204.19,-219.49 199,-225 182.23,-242.79 187.56,-258.4 199,-280 212.33,-305.16 238.67,-290.84 252,-316 274.54,-358.55 253.75,-390.75 235,-372"/>
</g>
<!-- sg1n4 -->
<g id="node13" class="node">
<title>sg1n4</title>
<ellipse fill="none" stroke="black" stroke-width="3" cx="254" cy="-136" rx="18" ry="18"/>
<text text-anchor="middle" x="254" y="-124.38" font-family="Times,serif" font-size="30.00">ε</text>
</g>
<!-- sg1n1&#45;&gt;sg1n4 -->
<g id="edge13" class="edge">
<title>sg1n1:se&#45;&gt;sg1n4:n</title>
<path fill="none" stroke="black" stroke-width="3" d="M254,-224C275.37,-202.63 254,-186.22 254,-156"/>
</g>
<!-- dummy_3 -->
<!-- dummy_2&#45;&gt;dummy_3 -->
<g id="edge21" class="edge">
<title>dummy_2:s&#45;&gt;dummy_3:s</title>
<path fill="none" stroke="black" stroke-width="3" d="M566,-507.56C568.48,-505.96 571.11,-504.39 573.88,-502.83"/>
<polygon fill="black" stroke="black" stroke-width="3" points="574.78,-506.21 582,-498.46 571.52,-500.01 574.78,-506.21"/>
</g>
<!-- sg2n0 -->
<g id="node16" class="node">
<title>sg2n0</title>
<polygon fill="none" stroke="black" stroke-width="3" points="472,-532 508,-586 436,-586 472,-532"/>
<text text-anchor="middle" x="472" y="-556.38" font-family="Times,serif" font-size="30.00">δ</text>
</g>
<!-- sg2n1 -->
<g id="node17" class="node">
<title>sg2n1</title>
<polygon fill="black" stroke="black" stroke-width="3" points="510,-496 474,-442 546,-442 510,-496"/>
<text text-anchor="middle" x="510" y="-448.38" font-family="Times,serif" font-size="30.00" fill="white">γ</text>
</g>
<!-- sg2n0&#45;&gt;sg2n1 -->
<g id="edge16" class="edge">
<title>sg2n0:s&#45;&gt;sg2n1:n</title>
<path fill="none" stroke="red" stroke-width="3" d="M472,-532C472,-508.74 510,-519.26 510,-496"/>
</g>
<!-- sg2n2 -->
<g id="node19" class="node">
<title>sg2n2</title>
<ellipse fill="none" stroke="black" stroke-width="3" cx="438" cy="-460" rx="18" ry="18"/>
<text text-anchor="middle" x="438" y="-448.38" font-family="Times,serif" font-size="30.00">ε</text>
</g>
<!-- sg2n0&#45;&gt;sg2n2 -->
<g id="edge19" class="edge">
<title>sg2n0:nw&#45;&gt;sg2n2:n</title>
<path fill="none" stroke="black" stroke-width="3" d="M453,-588C418.73,-622.27 438,-528.46 438,-480"/>
</g>
<!-- sg2n1&#45;&gt;sg2n0 -->
<g id="edge17" class="edge">
<title>sg2n1:sw&#45;&gt;sg2n0:ne</title>
<path fill="none" stroke="blue" stroke-width="3" d="M491,-440C485.65,-434.65 479.19,-435.49 474,-441 457.23,-458.79 464.97,-473.28 474,-496 482.13,-516.45 499.87,-511.55 508,-532 534.42,-598.45 522.71,-619.71 491,-588"/>
</g>
<!-- sg2n4 -->
<g id="node18" class="node">
<title>sg2n4</title>
<ellipse fill="none" stroke="black" stroke-width="3" cx="528" cy="-352" rx="18" ry="18"/>
<text text-anchor="middle" x="528" y="-340.38" font-family="Times,serif" font-size="30.00">ε</text>
</g>
<!-- sg2n1&#45;&gt;sg2n4 -->
<g id="edge18" class="edge">
<title>sg2n1:se&#45;&gt;sg2n4:n</title>
<path fill="none" stroke="black" stroke-width="3" d="M529,-440C550.37,-418.63 528,-402.23 528,-372"/>
</g>
<!-- sg2n3 -->
<g id="node20" class="node">
<title>sg2n3</title>
<ellipse fill="none" stroke="black" stroke-width="3" cx="384" cy="-568" rx="18" ry="18"/>
<text text-anchor="middle" x="384" y="-556.38" font-family="Times,serif" font-size="30.00">ε</text>
</g>
<!-- sg2n5 -->
<g id="node21" class="node">
<title>sg2n5</title>
<ellipse fill="none" stroke="black" stroke-width="3" cx="384" cy="-460" rx="18" ry="18"/>
<text text-anchor="middle" x="384" y="-448.38" font-family="Times,serif" font-size="30.00">ε</text>
</g>
<!-- sg2n3&#45;&gt;sg2n5 -->
<g id="edge20" class="edge">
<title>sg2n3:s&#45;&gt;sg2n5:n</title>
<path fill="none" stroke="red" stroke-width="3" d="M384,-548C384,-517.78 384,-510.22 384,-480"/>
</g>
<!-- dummy_4 -->
<!-- dummy_3&#45;&gt;dummy_4 -->
<g id="edge30" class="edge">
<title>dummy_3:s&#45;&gt;dummy_4:s</title>
<path fill="none" stroke="black" stroke-width="3" d="M752,-510.03C754.52,-507.93 757.27,-505.89 760.27,-503.87"/>
<polygon fill="black" stroke="black" stroke-width="3" points="762.28,-506.92 769,-498.73 758.64,-500.94 762.28,-506.92"/>
</g>
<!-- sg3n0 -->
<g id="node23" class="node">
<title>sg3n0</title>
<ellipse fill="none" stroke="black" stroke-width="3" cx="692" cy="-568" rx="18" ry="18"/>
<text text-anchor="middle" x="692" y="-556.38" font-family="Times,serif" font-size="30.00">ε</text>
</g>
<!-- sg3n7 -->
<g id="node24" class="node">
<title>sg3n7</title>
<polygon fill="black" stroke="black" stroke-width="3" points="696,-496 660,-442 732,-442 696,-496"/>
<text text-anchor="middle" x="696" y="-448.38" font-family="Times,serif" font-size="30.00" fill="white">γ</text>
</g>
<!-- sg3n0&#45;&gt;sg3n7 -->
<g id="edge22" class="edge">
<title>sg3n0:s&#45;&gt;sg3n7:n</title>
<path fill="none" stroke="red" stroke-width="3" d="M692,-548C692,-524.82 696,-519.18 696,-496"/>
</g>
<!-- sg3n4 -->
<g id="node25" class="node">
<title>sg3n4</title>
<polygon fill="none" stroke="black" stroke-width="3" points="658,-316 694,-370 622,-370 658,-316"/>
<text text-anchor="middle" x="658" y="-340.38" font-family="Times,serif" font-size="30.00">δ</text>
</g>
<!-- sg3n7&#45;&gt;sg3n4 -->
<g id="edge23" class="edge">
<title>sg3n7:sw&#45;&gt;sg3n4:ne</title>
<path fill="none" stroke="blue" stroke-width="3" d="M677,-440C655.63,-418.63 698.37,-393.37 677,-372"/>
</g>
<!-- sg3n6 -->
<g id="node26" class="node">
<title>sg3n6</title>
<polygon fill="black" stroke="black" stroke-width="3" points="658,-280 622,-226 694,-226 658,-280"/>
<text text-anchor="middle" x="658" y="-232.38" font-family="Times,serif" font-size="30.00" fill="white">γ</text>
</g>
<!-- sg3n4&#45;&gt;sg3n6 -->
<g id="edge24" class="edge">
<title>sg3n4:s&#45;&gt;sg3n6:n</title>
<path fill="none" stroke="red" stroke-width="3" d="M658,-314C658,-298.89 658,-295.11 658,-280"/>
</g>
<!-- sg3n6&#45;&gt;sg3n4 -->
<g id="edge25" class="edge">
<title>sg3n6:sw&#45;&gt;sg3n4:nw</title>
<path fill="none" stroke="blue" stroke-width="3" d="M639,-224C592.49,-177.49 592.49,-418.51 639,-372"/>
</g>
<!-- sg3n5 -->
<g id="node27" class="node">
<title>sg3n5</title>
<polygon fill="none" stroke="black" stroke-width="3" points="696,-100 732,-154 660,-154 696,-100"/>
<text text-anchor="middle" x="696" y="-124.38" font-family="Times,serif" font-size="30.00">δ</text>
</g>
<!-- sg3n6&#45;&gt;sg3n5 -->
<g id="edge26" class="edge">
<title>sg3n6:se&#45;&gt;sg3n5:nw</title>
<path fill="none" stroke="blue" stroke-width="3" d="M677,-224C698.37,-202.63 655.63,-177.37 677,-156"/>
</g>
<!-- sg3n5&#45;&gt;sg3n7 -->
<g id="edge28" class="edge">
<title>sg3n5:ne&#45;&gt;sg3n7:se</title>
<path fill="none" stroke="blue" stroke-width="3" d="M715,-156C759.63,-200.63 759.63,-395.37 715,-440"/>
</g>
<!-- sg3n2 -->
<g id="node28" class="node">
<title>sg3n2</title>
<ellipse fill="none" stroke="black" stroke-width="3" cx="696" cy="-46" rx="18" ry="18"/>
<text text-anchor="middle" x="696" y="-34.38" font-family="Times,serif" font-size="30.00">ε</text>
</g>
<!-- sg3n5&#45;&gt;sg3n2 -->
<g id="edge27" class="edge">
<title>sg3n5:s&#45;&gt;sg3n2:n</title>
<path fill="none" stroke="red" stroke-width="3" d="M696,-98C696,-82.89 696,-79.11 696,-64"/>
</g>
<!-- sg3n1 -->
<g id="node29" class="node">
<title>sg3n1</title>
<ellipse fill="none" stroke="black" stroke-width="3" cx="624" cy="-568" rx="18" ry="18"/>
<text text-anchor="middle" x="624" y="-556.38" font-family="Times,serif" font-size="30.00">ε</text>
</g>
<!-- sg3n3 -->
<g id="node30" class="node">
<title>sg3n3</title>
<ellipse fill="none" stroke="black" stroke-width="3" cx="624" cy="-460" rx="18" ry="18"/>
<text text-anchor="middle" x="624" y="-448.38" font-family="Times,serif" font-size="30.00">ε</text>
</g>
<!-- sg3n1&#45;&gt;sg3n3 -->
<g id="edge29" class="edge">
<title>sg3n1:s&#45;&gt;sg3n3:n</title>
<path fill="none" stroke="red" stroke-width="3" d="M624,-548C624,-517.78 624,-510.22 624,-480"/>
</g>
<!-- dummy_5 -->
<!-- dummy_4&#45;&gt;dummy_5 -->
<g id="edge38" class="edge">
<title>dummy_4:s&#45;&gt;dummy_5:s</title>
<path fill="none" stroke="black" stroke-width="3" d="M938,-508.58C940.67,-505.81 943.53,-503.23 946.56,-500.86"/>
<polygon fill="black" stroke="black" stroke-width="3" points="948.56,-503.77 955,-495.36 944.72,-497.92 948.56,-503.77"/>
</g>
<!-- sg4n0 -->
<g id="node32" class="node">
<title>sg4n0</title>
<ellipse fill="none" stroke="black" stroke-width="3" cx="878" cy="-568" rx="18" ry="18"/>
<text text-anchor="middle" x="878" y="-556.38" font-family="Times,serif" font-size="30.00">ε</text>
</g>
<!-- sg4n2 -->
<g id="node33" class="node">
<title>sg4n2</title>
<ellipse fill="none" stroke="black" stroke-width="3" cx="900" cy="-460" rx="18" ry="18"/>
<text text-anchor="middle" x="900" y="-448.38" font-family="Times,serif" font-size="30.00">ε</text>
</g>
<!-- sg4n0&#45;&gt;sg4n2 -->
<g id="edge31" class="edge">
<title>sg4n0:s&#45;&gt;sg4n2:n</title>
<path fill="none" stroke="red" stroke-width="3" d="M878,-548C878,-516.24 900,-511.76 900,-480"/>
</g>
<!-- sg4n1 -->
<g id="node34" class="node">
<title>sg4n1</title>
<ellipse fill="none" stroke="black" stroke-width="3" cx="824" cy="-568" rx="18" ry="18"/>
<text text-anchor="middle" x="824" y="-556.38" font-family="Times,serif" font-size="30.00">ε</text>
</g>
<!-- sg4n4 -->
<g id="node35" class="node">
<title>sg4n4</title>
<polygon fill="none" stroke="black" stroke-width="3" points="828,-496 792,-442 864,-442 828,-496"/>
<text text-anchor="middle" x="828" y="-448.38" font-family="Times,serif" font-size="30.00">δ</text>
</g>
<!-- sg4n1&#45;&gt;sg4n4 -->
<g id="edge32" class="edge">
<title>sg4n1:s&#45;&gt;sg4n4:n</title>
<path fill="none" stroke="red" stroke-width="3" d="M824,-548C824,-524.82 828,-519.18 828,-496"/>
</g>
<!-- sg4n7 -->
<g id="node36" class="node">
<title>sg4n7</title>
<ellipse fill="none" stroke="black" stroke-width="3" cx="810" cy="-352" rx="18" ry="18"/>
<text text-anchor="middle" x="810" y="-340.38" font-family="Times,serif" font-size="30.00">ε</text>
</g>
<!-- sg4n4&#45;&gt;sg4n7 -->
<g id="edge33" class="edge">
<title>sg4n4:sw&#45;&gt;sg4n7:n</title>
<path fill="none" stroke="black" stroke-width="3" d="M809,-440C787.63,-418.63 810,-402.23 810,-372"/>
</g>
<!-- sg4n5 -->
<g id="node37" class="node">
<title>sg4n5</title>
<polygon fill="black" stroke="black" stroke-width="3" points="882,-316 918,-370 846,-370 882,-316"/>
<text text-anchor="middle" x="882" y="-340.38" font-family="Times,serif" font-size="30.00" fill="white">γ</text>
</g>
<!-- sg4n4&#45;&gt;sg4n5 -->
<g id="edge34" class="edge">
<title>sg4n4:se&#45;&gt;sg4n5:nw</title>
<path fill="none" stroke="blue" stroke-width="3" d="M847,-440C868.95,-418.05 841.05,-393.95 863,-372"/>
</g>
<!-- sg4n3 -->
<g id="node38" class="node">
<title>sg4n3</title>
<polygon fill="none" stroke="black" stroke-width="3" points="882,-280 846,-226 918,-226 882,-280"/>
<text text-anchor="middle" x="882" y="-232.38" font-family="Times,serif" font-size="30.00">δ</text>
</g>
<!-- sg4n5&#45;&gt;sg4n3 -->
<g id="edge35" class="edge">
<title>sg4n5:s&#45;&gt;sg4n3:n</title>
<path fill="none" stroke="red" stroke-width="3" d="M882,-314C882,-298.89 882,-295.11 882,-280"/>
</g>
<!-- sg4n3&#45;&gt;sg4n5 -->
<g id="edge37" class="edge">
<title>sg4n3:se&#45;&gt;sg4n5:ne</title>
<path fill="none" stroke="blue" stroke-width="3" d="M901,-224C947.51,-177.49 947.51,-418.51 901,-372"/>
</g>
<!-- sg4n6 -->
<g id="node39" class="node">
<title>sg4n6</title>
<ellipse fill="none" stroke="black" stroke-width="3" cx="863" cy="-136" rx="18" ry="18"/>
<text text-anchor="middle" x="863" y="-124.38" font-family="Times,serif" font-size="30.00">ε</text>
</g>
<!-- sg4n3&#45;&gt;sg4n6 -->
<g id="edge36" class="edge">
<title>sg4n3:sw&#45;&gt;sg4n6:n</title>
<path fill="none" stroke="black" stroke-width="3" d="M863,-224C841.63,-202.63 863,-186.22 863,-156"/>
</g>
<!-- dummy_6 -->
<!-- dummy_5&#45;&gt;dummy_6 -->
<g id="edge45" class="edge">
<title>dummy_5:s&#45;&gt;dummy_6:s</title>
<path fill="none" stroke="black" stroke-width="3" d="M1124,-505.33C1126.39,-504.14 1128.87,-502.96 1131.43,-501.78"/>
<polygon fill="black" stroke="black" stroke-width="3" points="1132.29,-504.45 1140,-497.18 1129.44,-498.05 1132.29,-504.45"/>
</g>
<!-- sg5n0 -->
<g id="node41" class="node">
<title>sg5n0</title>
<ellipse fill="none" stroke="black" stroke-width="3" cx="1022" cy="-568" rx="18" ry="18"/>
<text text-anchor="middle" x="1022" y="-556.38" font-family="Times,serif" font-size="30.00">ε</text>
</g>
<!-- sg5n2 -->
<g id="node42" class="node">
<title>sg5n2</title>
<polygon fill="none" stroke="black" stroke-width="3" points="1022,-496 986,-442 1058,-442 1022,-496"/>
<text text-anchor="middle" x="1022" y="-448.38" font-family="Times,serif" font-size="30.00">δ</text>
</g>
<!-- sg5n0&#45;&gt;sg5n2 -->
<g id="edge39" class="edge">
<title>sg5n0:s&#45;&gt;sg5n2:n</title>
<path fill="none" stroke="red" stroke-width="3" d="M1022,-548C1022,-524.89 1022,-519.11 1022,-496"/>
</g>
<!-- sg5n5 -->
<g id="node43" class="node">
<title>sg5n5</title>
<ellipse fill="none" stroke="black" stroke-width="3" cx="996" cy="-352" rx="18" ry="18"/>
<text text-anchor="middle" x="996" y="-340.38" font-family="Times,serif" font-size="30.00">ε</text>
</g>
<!-- sg5n2&#45;&gt;sg5n5 -->
<g id="edge40" class="edge">
<title>sg5n2:sw&#45;&gt;sg5n5:n</title>
<path fill="none" stroke="black" stroke-width="3" d="M1003,-440C981.52,-418.52 996,-402.38 996,-372"/>
</g>
<!-- sg5n3 -->
<g id="node44" class="node">
<title>sg5n3</title>
<polygon fill="black" stroke="black" stroke-width="3" points="1068,-316 1104,-370 1032,-370 1068,-316"/>
<text text-anchor="middle" x="1068" y="-340.38" font-family="Times,serif" font-size="30.00" fill="white">γ</text>
</g>
<!-- sg5n2&#45;&gt;sg5n3 -->
<g id="edge41" class="edge">
<title>sg5n2:se&#45;&gt;sg5n3:nw</title>
<path fill="none" stroke="blue" stroke-width="3" d="M1041,-440C1062.52,-418.48 1027.48,-393.52 1049,-372"/>
</g>
<!-- sg5n1 -->
<g id="node45" class="node">
<title>sg5n1</title>
<polygon fill="none" stroke="black" stroke-width="3" points="1068,-280 1032,-226 1104,-226 1068,-280"/>
<text text-anchor="middle" x="1068" y="-232.38" font-family="Times,serif" font-size="30.00">δ</text>
</g>
<!-- sg5n3&#45;&gt;sg5n1 -->
<g id="edge42" class="edge">
<title>sg5n3:s&#45;&gt;sg5n1:n</title>
<path fill="none" stroke="red" stroke-width="3" d="M1068,-314C1068,-298.89 1068,-295.11 1068,-280"/>
</g>
<!-- sg5n1&#45;&gt;sg5n3 -->
<g id="edge44" class="edge">
<title>sg5n1:se&#45;&gt;sg5n3:ne</title>
<path fill="none" stroke="blue" stroke-width="3" d="M1087,-224C1133.51,-177.49 1133.51,-418.51 1087,-372"/>
</g>
<!-- sg5n4 -->
<g id="node46" class="node">
<title>sg5n4</title>
<ellipse fill="none" stroke="black" stroke-width="3" cx="1049" cy="-136" rx="18" ry="18"/>
<text text-anchor="middle" x="1049" y="-124.38" font-family="Times,serif" font-size="30.00">ε</text>
</g>
<!-- sg5n1&#45;&gt;sg5n4 -->
<g id="edge43" class="edge">
<title>sg5n1:sw&#45;&gt;sg5n4:n</title>
<path fill="none" stroke="black" stroke-width="3" d="M1049,-224C1027.63,-202.63 1049,-186.22 1049,-156"/>
</g>
<!-- sg6n0 -->
<g id="node48" class="node">
<title>sg6n0</title>
<polygon fill="none" stroke="black" stroke-width="3" points="1254,-532 1290,-586 1218,-586 1254,-532"/>
<text text-anchor="middle" x="1254" y="-556.38" font-family="Times,serif" font-size="30.00">δ</text>
</g>
<!-- sg6n1 -->
<g id="node49" class="node">
<title>sg6n1</title>
<polygon fill="black" stroke="black" stroke-width="3" points="1254,-496 1218,-442 1290,-442 1254,-496"/>
<text text-anchor="middle" x="1254" y="-448.38" font-family="Times,serif" font-size="30.00" fill="white">γ</text>
</g>
<!-- sg6n0&#45;&gt;sg6n1 -->
<g id="edge46" class="edge">
<title>sg6n0:s&#45;&gt;sg6n1:n</title>
<path fill="none" stroke="red" stroke-width="3" d="M1254,-532C1254,-516 1254,-512 1254,-496"/>
</g>
<!-- sg6n2 -->
<g id="node51" class="node">
<title>sg6n2</title>
<ellipse fill="none" stroke="black" stroke-width="3" cx="1326" cy="-460" rx="18" ry="18"/>
<text text-anchor="middle" x="1326" y="-448.38" font-family="Times,serif" font-size="30.00">ε</text>
</g>
<!-- sg6n0&#45;&gt;sg6n2 -->
<g id="edge49" class="edge">
<title>sg6n0:ne&#45;&gt;sg6n2:n</title>
<path fill="none" stroke="black" stroke-width="3" d="M1273,-588C1278.35,-593.35 1283.99,-591.6 1290,-587 1299.97,-579.38 1326,-492.54 1326,-480"/>
</g>
<!-- sg6n1&#45;&gt;sg6n0 -->
<g id="edge47" class="edge">
<title>sg6n1:sw&#45;&gt;sg6n0:nw</title>
<path fill="none" stroke="blue" stroke-width="3" d="M1235,-440C1229.65,-434.65 1223.19,-435.49 1218,-441 1206.87,-452.8 1206.87,-575.2 1218,-587 1223.19,-592.51 1229.65,-593.35 1235,-588"/>
</g>
<!-- sg6n5 -->
<g id="node50" class="node">
<title>sg6n5</title>
<ellipse fill="none" stroke="black" stroke-width="3" cx="1273" cy="-352" rx="18" ry="18"/>
<text text-anchor="middle" x="1273" y="-340.38" font-family="Times,serif" font-size="30.00">ε</text>
</g>
<!-- sg6n1&#45;&gt;sg6n5 -->
<g id="edge48" class="edge">
<title>sg6n1:se&#45;&gt;sg6n5:n</title>
<path fill="none" stroke="black" stroke-width="3" d="M1273,-440C1294.37,-418.63 1273,-402.22 1273,-372"/>
</g>
<!-- sg6n3 -->
<g id="node52" class="node">
<title>sg6n3</title>
<ellipse fill="none" stroke="black" stroke-width="3" cx="1182" cy="-568" rx="18" ry="18"/>
<text text-anchor="middle" x="1182" y="-556.38" font-family="Times,serif" font-size="30.00">ε</text>
</g>
<!-- sg6n4 -->
<g id="node53" class="node">
<title>sg6n4</title>
<ellipse fill="none" stroke="black" stroke-width="3" cx="1182" cy="-460" rx="18" ry="18"/>
<text text-anchor="middle" x="1182" y="-448.38" font-family="Times,serif" font-size="30.00">ε</text>
</g>
<!-- sg6n3&#45;&gt;sg6n4 -->
<g id="edge50" class="edge">
<title>sg6n3:s&#45;&gt;sg6n4:n</title>
<path fill="none" stroke="red" stroke-width="3" d="M1182,-548C1182,-517.78 1182,-510.22 1182,-480"/>
</g>
</g>
</svg>
